<svg xmlns="http://www.w3.org/2000/svg" xmlns:xlink="http://www.w3.org/1999/xlink" viewBox="0 0 114.5 114.5"><defs><style>.cls-1,.cls-2,.cls-4{fill:none;}.cls-1,.cls-2,.cls-3,.cls-4{stroke:#000;stroke-miterlimit:10;}.cls-1{stroke-width:3px;}.cls-2,.cls-3{stroke-width:8px;}.cls-3{fill:url(#Orchid);}.cls-4{stroke-width:4px;}</style><linearGradient id="Orchid" x1="59.51" y1="41" x2="98.34" y2="41" gradientUnits="userSpaceOnUse"><stop offset="0" stop-color="#ff7bac"/><stop offset="0.22" stop-color="#ff7bac" stop-opacity="0.76"/><stop offset="0.6" stop-color="#ff7bac" stop-opacity="0.36"/><stop offset="0.87" stop-color="#ff7bac" stop-opacity="0.1"/><stop offset="1" stop-color="#ff7bac" stop-opacity="0"/></linearGradient></defs><title>Asset 4</title><g id="Layer_2" data-name="Layer 2"><g id="Layer_1-2" data-name="Layer 1"><path class="cls-1" d="M57.25,1.5A55.75,55.75,0,1,0,113,57.25,55.75,55.75,0,0,0,57.25,1.5ZM71,68.07c-4,0-7.74-.12-11.14-1.79l-.35-.18a102.33,102.33,0,0,0,9.24-18.49,3.27,3.27,0,0,0,1.89.1,3.27,3.27,0,0,0,1.76-.56,4.81,4.81,0,0,0,1-.75,5,5,0,0,0,1.24-2.17,6.71,6.71,0,0,0,.19-1.62,3.64,3.64,0,0,0-.39-1.84,3.64,3.64,0,0,0-1-1.54,3,3,0,0,0-.27-.23C78,30.87,82.83,22.76,86.26,13.92A31,31,0,0,1,98.34,39.11C98.24,55.72,86,68.16,71,68.07Z"/><path class="cls-2" d="M6.5,72c8.5,8.67,25.78,25.78,35.25,35.5"/><path class="cls-2" d="M39.47,108.33c8.42-16.87,14-29.46,22-45.33"/><path class="cls-3" d="M98.34,39.11C98.24,55.72,86,68.16,71,68.07c-4,0-7.74-.12-11.14-1.79l-.35-.18a102.33,102.33,0,0,0,9.24-18.49,3.27,3.27,0,0,0,1.89.1,3.27,3.27,0,0,0,1.76-.56,4.81,4.81,0,0,0,1-.75,5,5,0,0,0,1.24-2.17,6.71,6.71,0,0,0,.19-1.62,3.64,3.64,0,0,0-.39-1.84,3.64,3.64,0,0,0-1-1.54,3,3,0,0,0-.27-.23C78,30.87,82.83,22.76,86.26,13.92A31,31,0,0,1,98.34,39.11Z"/><path class="cls-4" d="M32.14,46.45c7.72,1.44,23.23,4.09,31.85,5.73"/><path class="cls-4" d="M49.58,13.56c7,3.59,21.07,10.59,28.85,14.64"/><path class="cls-4" d="M58.34,4.82C65.62,10.94,76.18,19.53,81,23.62"/><path class="cls-4" d="M31.87,59.09c7.83-.54,23.51-1.85,32.27-2.43"/></g></g></svg>